<svg xmlns="http://www.w3.org/2000/svg" width="98" height="98" viewBox="0 0 98 98" xmlns:xlink="http://www.w3.org/1999/xlink"><defs><rect id="a" width="270" height="270" rx="8"/><rect id="b" width="80" height="50" x="3" rx="6"/><path id="c" d="M0 60h86v5.5c0 3.038-2.458 5.5-5.494 5.5H5.494A5.501 5.501 0 0 1 0 65.5V60z"/><path id="d" d="M2.347 47.951C2.673 46.321 4.276 45 5.927 45h74.02c1.652 0 3.253 1.312 3.58 2.951l2.232 11.157c.65 3.254-1.503 5.892-4.818 5.892H4.934c-3.312 0-5.47-2.635-4.818-5.892L2.347 47.95z"/><path id="e" d="M33.834 57.898C34.184 56.85 35.36 56 36.46 56h12.012c1.102 0 2.277.847 2.627 1.898l1.735 5.204c.35 1.048-.257 1.898-1.359 1.898H33.458c-1.1 0-1.71-.847-1.359-1.898l1.735-5.204z"/></defs><g transform="translate(-92 -48)" fill="none" fill-rule="evenodd"><use xlink:href="#a"/><use fill="#FFF" xlink:href="#a"/><g transform="translate(98 62)"><use fill="#FFF" xlink:href="#b"/><rect class="icon-color-stroke-primary" width="78" height="48" x="4" y="1" stroke="#504D7F" stroke-width="2" rx="6"/><rect class="icon-color-fill-secondary" width="58" height="2" x="14" y="11" fill="#FFA15A" rx="1"/><rect class="icon-color-fill-secondary" width="35" height="2" x="14" y="23" fill="#FFA15A" rx="1"/><rect class="icon-color-fill-secondary" width="39" height="2" x="14" y="35" fill="#FFA15A" rx="1"/><use fill="#F8F8F8" xlink:href="#c"/><path class="icon-color-stroke-primary" stroke="#504D7F" stroke-width="2" d="M1 61v4.5C1 67.982 3.015 70 5.494 70h75.012A4.496 4.496 0 0 0 85 65.5V61H1z"/><use class="icon-color-fill" fill="#F8F8F8" xlink:href="#d"/><path class="icon-color-stroke-primary" stroke="#504D7F" stroke-width="2" d="M3.328 48.147L1.097 59.304C.569 61.942 2.253 64 4.934 64h76.007c2.682 0 4.365-2.06 3.837-4.696l-2.23-11.157c-.235-1.169-1.423-2.147-2.6-2.147H5.927c-1.174 0-2.367.984-2.6 2.147z"/><use fill="#FFF" xlink:href="#e"/><path class="icon-color-stroke-primary" stroke="#504D7F" stroke-width="2" d="M34.783 58.214l-1.735 5.205c-.135.403-.007.581.41.581h18.017c.417 0 .544-.179.41-.581l-1.735-5.205C49.936 57.572 49.144 57 48.472 57H36.46c-.669 0-1.464.574-1.677 1.214z"/><path class="icon-color-fill-primary" fill="#504D7F" d="M62.07 31.036v-.892c0-.772.165-1.444.495-2.014.33-.571.932-1.178 1.809-1.822.844-.603 1.4-1.093 1.67-1.47.27-.379.404-.8.404-1.267 0-.523-.193-.92-.579-1.194-.386-.274-.924-.41-1.616-.41-1.206 0-2.58.394-4.124 1.182l-1.315-2.641C60.607 19.503 62.51 19 64.52 19c1.656 0 2.972.398 3.95 1.194.976.796 1.465 1.857 1.465 3.184 0 .884-.201 1.648-.603 2.291-.402.644-1.166 1.367-2.292 2.171-.772.571-1.26 1.005-1.465 1.303-.205.297-.308.687-.308 1.17v.723H62.07zm-.386 4.125c0-.676.181-1.186.543-1.532.362-.346.889-.519 1.58-.519.667 0 1.184.177 1.55.531.366.354.548.86.548 1.52 0 .635-.184 1.135-.554 1.501-.37.366-.885.549-1.544.549-.675 0-1.198-.179-1.568-.537-.37-.358-.555-.862-.555-1.513z"/></g></g></svg>