<svg xmlns="http://www.w3.org/2000/svg" width="98" height="98" viewBox="0 0 98 98" xmlns:xlink="http://www.w3.org/1999/xlink"><defs><rect id="b" width="270" height="270" rx="8"/><filter id="a" width="131.5%" height="131.5%" x="-15.7%" y="-12%" filterUnits="objectBoundingBox"><feOffset dy="10" in="SourceAlpha" result="shadowOffsetOuter1"/><feGaussianBlur stdDeviation="12.5" in="shadowOffsetOuter1" result="shadowBlurOuter1"/><feColorMatrix values="0 0 0 0 0.243137255 0 0 0 0 0.235294118 0 0 0 0 0.384313725 0 0 0 0.1 0" in="shadowBlurOuter1"/></filter><linearGradient id="d" x1="0%" x2="97.178%" y1="0%" y2="100%"><stop stop-color="#504D7F" offset="0%"/><stop stop-color="#3C3A5E" offset="100%"/></linearGradient><path id="c" d="M0 6c0-3.314 2.68-6 5.998-6h58.004A6 6 0 0 1 70 6v28c0 3.314-2.695 6-5.998 6H23.02L9.042 52l.022-12H5.995A5.998 5.998 0 0 1 0 34V6z"/><path id="e" d="M0 6c0-3.314 2.68-6 5.998-6h58.004A6 6 0 0 1 70 6v28c0 3.314-2.695 6-5.998 6H23.02L9.042 52l.022-12H5.995A5.998 5.998 0 0 1 0 34V6z"/></defs><g transform="translate(-84 -38)" fill="none" fill-rule="evenodd"><use fill="#000" filter="url(#a)" xlink:href="#b"/><use fill="#FFF" xlink:href="#b"/><g transform="translate(88 49)"><g transform="matrix(-1 0 0 1 90 24)"><use fill="#FFF" xlink:href="#c"/><path class="icon-color-stroke-primary" stroke="url(#d)" stroke-width="2" d="M10.046 49.82L22.65 39h41.353A5.005 5.005 0 0 0 69 34V6a5 5 0 0 0-4.998-5H5.998A4.995 4.995 0 0 0 1 6v28c0 2.761 2.237 5 4.995 5h4.07l-.019 10.82z"/><rect class="icon-color-fill-secondary" width="20" height="2" x="8" y="11" fill="#FFA15A" rx="1"/><rect class="icon-color-fill-secondary" width="34" height="2" x="8" y="19" fill="#FFA15A" rx="1"/><rect class="icon-color-fill-secondary" width="10" height="2" x="8" y="27" fill="#FFA15A" rx="1"/><rect class="icon-color-fill-secondary" width="39" height="2" x="23" y="27" fill="#FFA15A" rx="1"/><rect width="15" height="2" x="47" y="15" fill="#000" rx="1"/><rect width="29" height="2" x="33" y="8" fill="#000" rx="1"/></g><use xlink:href="#e"/><path class="icon-color-stroke-primary" fill="#F8F8F8" stroke="url(#d)" stroke-width="2" d="M10.046 49.82L22.65 39h41.353A5.005 5.005 0 0 0 69 34V6a5 5 0 0 0-4.998-5H5.998A4.995 4.995 0 0 0 1 6v28c0 2.761 2.237 5 4.995 5h4.07l-.019 10.82z"/><path stroke="#FFF" stroke-width="6" d="M24.13 43L6.03 58.54 6.06 43h-.064C1.027 43-3 38.97-3 34V6c0-4.972 4.024-9 8.998-9h58.004A9 9 0 0 1 73 6v28c0 4.968-4.035 9-8.998 9H24.13z"/><rect class="icon-color-fill-primary" width="20" height="2" x="8" y="11" fill="#504D7F" rx="1"/><rect class="icon-color-fill-primary" width="34" height="2" x="8" y="19" fill="#504D7F" rx="1"/><rect class="icon-color-fill-primary" width="10" height="2" x="8" y="27" fill="#504D7F" rx="1"/><rect class="icon-color-fill-primary" width="39" height="2" x="23" y="27" fill="#504D7F" rx="1"/><rect class="icon-color-fill-primary" width="15" height="2" x="47" y="19" fill="#504D7F" rx="1"/><rect class="icon-color-fill-primary" width="29" height="2" x="33" y="11" fill="#504D7F" rx="1"/></g></g></svg>