<?xml version="1.0" encoding="utf-8"?>
<!-- Generator: Adobe Illustrator 16.0.0, SVG Export Plug-In . SVG Version: 6.00 Build 0)  -->
<!DOCTYPE svg PUBLIC "-//W3C//DTD SVG 1.1//EN" "http://www.w3.org/Graphics/SVG/1.1/DTD/svg11.dtd">
<svg version="1.1" id="圖層_1" xmlns="http://www.w3.org/2000/svg" xmlns:xlink="http://www.w3.org/1999/xlink" x="0px" y="0px"
	 width="230px" height="40px" viewBox="0 0 230 40" enable-background="new 0 0 230 40" xml:space="preserve">
<path fill="#FFFFFF" d="M8.674,0.548C8.674,0.181,8.86,0,9.223,0l19.718,0.041c1.314,0.004,2.529,0.226,3.642,0.665
	c1.113,0.443,2.079,1.073,2.898,1.895c0.82,0.825,1.467,1.823,1.937,2.992c0.473,1.169,0.709,2.484,0.706,3.944
	c-0.004,1.972-0.173,3.532-0.504,4.682c-0.329,1.149-0.706,2.027-1.125,2.628c-0.424,0.6-0.799,1.002-1.129,1.203
	c-0.326,0.199-0.492,0.355-0.492,0.462c0,0.184,0.28,0.566,0.847,1.151c0.563,0.589,1.193,1.265,1.887,2.033
	c0.254,0.33,0.48,0.712,0.682,1.151c0.197,0.438,0.371,0.887,0.516,1.343c0.146,0.456,0.245,0.912,0.299,1.369
	c0.053,0.459,0.081,0.85,0.081,1.177c-0.004,1.754-0.171,3.401-0.504,4.929c-0.331,1.535-0.911,2.865-1.734,3.994
	c-0.824,1.133-1.912,2.026-3.264,2.679c-1.352,0.656-3.068,0.984-5.152,0.978L9.142,39.272c-0.367,0-0.548-0.182-0.548-0.547
	L8.674,0.548z M16.585,15.191c0,0.363,0.18,0.546,0.549,0.546l9.472,0.02c1.463,0.002,2.503-0.313,3.125-0.954
	c0.621-0.637,0.935-1.794,0.938-3.476c0.003-1.568-0.396-2.655-1.199-3.262c-0.8-0.602-1.752-0.905-2.844-0.909L17.15,7.137
	c-0.367,0-0.548,0.181-0.548,0.548L16.585,15.191z M16.549,31.618c0,0.367,0.184,0.551,0.548,0.551l11.558,0.023
	c0.621,0.001,1.132-0.162,1.536-0.489c0.401-0.33,0.73-0.736,0.984-1.232c0.259-0.49,0.434-1.008,0.526-1.558
	c0.093-0.55,0.139-1.023,0.139-1.424c0.004-0.838-0.096-1.544-0.296-2.107c-0.199-0.561-0.454-1.016-0.764-1.343
	c-0.311-0.327-0.658-0.559-1.039-0.687c-0.385-0.131-0.74-0.196-1.067-0.196l-11.557-0.024c-0.367,0-0.55,0.183-0.55,0.545
	L16.549,31.618z"/>
<path fill="#FFFFFF" d="M44.014,0.075l5.587,0.012c0.367,0,0.55,0.183,0.55,0.546l-0.014,5.589
	c-0.002,0.363-0.183,0.544-0.548,0.544l-5.587-0.012c-0.367,0-0.548-0.181-0.548-0.546l0.012-5.587
	C43.466,0.257,43.652,0.075,44.014,0.075 M43.446,11.355c0-0.363,0.181-0.548,0.548-0.548l5.585,0.012
	c0.365,0.003,0.548,0.188,0.546,0.55l-0.058,27.441c0,0.369-0.182,0.551-0.547,0.551l-5.588-0.012c-0.364,0-0.547-0.188-0.547-0.551
	L43.446,11.355z"/>
<path fill="#FFFFFF" d="M60.39,39.377c-2.298-0.003-3.897-0.418-4.79-1.243c-0.892-0.821-1.337-1.946-1.333-3.368
	c0.001-0.693,0.157-1.34,0.469-1.945c0.309-0.601,0.743-1.177,1.29-1.723l12.679-12.568c0.146-0.146,0.218-0.311,0.222-0.492
	c0-0.33-0.313-0.496-0.932-0.496l-12.489-0.028c-0.362,0-0.546-0.181-0.546-0.549l0.01-5.586c0.004-0.363,0.186-0.546,0.553-0.546
	l17.965,0.036c2.153,0.009,3.63,0.422,4.433,1.242c0.8,0.826,1.2,2.077,1.196,3.758c-0.002,0.767-0.113,1.421-0.333,1.967
	c-0.22,0.549-0.53,1.023-0.934,1.423L65.499,31.555c-0.254,0.259-0.382,0.495-0.382,0.713c0,0.295,0.198,0.439,0.601,0.439
	l12.597,0.027c0.365,0,0.548,0.186,0.546,0.55l-0.01,5.588c-0.001,0.366-0.185,0.549-0.548,0.549L60.39,39.377z"/>
<path fill="#FFFFFF" d="M84.027,0.157l20.374,0.045c1.022,0,2.024,0.206,3.012,0.608c0.984,0.403,1.952,1.1,2.899,2.085
	c1.637,1.722,2.51,4.314,2.611,7.785l-0.002,1.259c-0.005,3.211-0.395,5.549-1.165,7.009c-0.513,0.729-1.045,1.394-1.593,1.995
	c-0.548,0.601-1.298,1.157-2.249,1.669c-0.038,0.037-0.082,0.088-0.136,0.158c-0.055,0.075-0.083,0.165-0.083,0.275
	c0,0.077,0.017,0.147,0.052,0.221c0.838,1.097,1.427,2.057,1.774,2.875c0.346,0.826,0.663,1.677,0.956,2.552l2.991,9.264
	c0.074,0.294,0.207,0.557,0.409,0.793c0.2,0.24,0.303,0.391,0.303,0.467c0,0.185-0.114,0.273-0.33,0.273l-7.562-0.015
	c-0.219,0-0.457-0.192-0.711-0.575c-0.254-0.385-0.419-0.705-0.488-0.963l-3.378-9.59c-0.506-2.049-1.545-3.183-3.114-3.4
	l-6.682-0.018c-0.366,0-0.548,0.185-0.548,0.549L91.34,38.897c-0.002,0.367-0.184,0.548-0.549,0.548l-6.847-0.016
	c-0.364,0-0.548-0.181-0.548-0.546l0.081-38.181C83.476,0.338,83.662,0.157,84.027,0.157 M91.952,7.294
	c-0.365,0-0.548,0.181-0.548,0.547l-0.02,8.928c0,0.366,0.202,0.547,0.605,0.55l9.911,0.021c0.51,0,1.077-0.254,1.698-0.766
	c0.512-0.436,0.908-1.073,1.186-1.911c0.274-0.838,0.412-1.771,0.413-2.794c0.002-0.51-0.024-0.976-0.078-1.396
	c-0.053-0.421-0.174-0.814-0.353-1.18c-0.583-1.205-1.276-1.865-2.077-1.978L91.952,7.294z"/>
<path fill="#FFFFFF" d="M144.435,28.491c-0.006,2.191-0.201,3.999-0.588,5.421c-0.387,1.424-0.972,2.556-1.759,3.392
	c-0.789,0.84-1.781,1.423-2.988,1.748c-1.208,0.325-2.648,0.486-4.33,0.483l-9.747-0.02c-1.683-0.006-3.069-0.308-4.164-0.912
	c-1.094-0.605-1.965-1.393-2.624-2.359c-0.653-0.973-1.109-2.064-1.362-3.293c-0.25-1.225-0.379-2.474-0.375-3.751l0.02-9.64
	c0.002-1.313,0.234-2.5,0.692-3.558c0.461-1.059,1.072-1.961,1.839-2.708c0.771-0.746,1.675-1.318,2.718-1.717
	c1.039-0.399,2.145-0.602,3.317-0.597l11.062,0.024c0.987,0.003,1.979,0.186,2.983,0.553c1.004,0.367,1.896,0.905,2.682,1.621
	c0.783,0.713,1.419,1.572,1.912,2.579c0.488,1.006,0.733,2.167,0.733,3.477L144.435,28.491z M137.713,20.424
	c0-0.435-0.132-0.83-0.408-1.177c-0.274-0.346-0.629-0.641-1.065-0.878c-0.438-0.238-0.932-0.412-1.478-0.524
	c-0.551-0.111-1.096-0.166-1.646-0.166l-5.969-0.012c-0.474-0.004-0.951,0.042-1.424,0.133c-0.476,0.089-0.906,0.243-1.288,0.463
	c-0.385,0.218-0.704,0.509-0.961,0.872c-0.259,0.367-0.387,0.801-0.387,1.314l-0.018,8.763c-0.003,0.731,0.151,1.334,0.465,1.809
	c0.307,0.477,0.697,0.852,1.172,1.127c0.472,0.276,0.984,0.459,1.533,0.552c0.547,0.093,1.058,0.138,1.532,0.138l5.039,0.014
	c1.316,0.003,2.458-0.301,3.428-0.925c0.966-0.617,1.453-1.401,1.455-2.354l0.008-4.378L137.713,20.424z"/>
<path fill="#FFFFFF" d="M155.931,11.044l10.351,0.021c1.751,0.003,3.251,0.355,4.487,1.05c1.244,0.698,2.259,1.676,3.062,2.938
	c0.799,1.258,1.393,2.786,1.771,4.577c0.383,1.792,0.567,3.764,0.564,5.917c-0.003,1.641-0.21,3.304-0.612,4.983
	c-0.408,1.681-1.013,3.183-1.82,4.516c-0.806,1.334-1.838,2.424-3.1,3.277c-1.263,0.859-2.733,1.282-4.411,1.279l-17.037-0.035
	c-0.362,0-0.546-0.187-0.545-0.55l0.08-38.18c0.001-0.363,0.183-0.545,0.551-0.545l5.584,0.013c0.367,0,0.549,0.186,0.549,0.548
	l-0.021,9.64C155.383,10.857,155.563,11.044,155.931,11.044 M155.336,32.35c0,0.362,0.182,0.547,0.547,0.547l5.972,0.012
	c1.129,0.005,2.17-0.104,3.12-0.32c0.947-0.216,1.754-0.597,2.413-1.144c0.66-0.548,1.169-1.295,1.54-2.244
	c0.365-0.949,0.551-2.171,0.557-3.664c0.003-1.609-0.179-2.923-0.542-3.948c-0.362-1.025-0.882-1.816-1.555-2.388
	c-0.675-0.565-1.478-0.951-2.408-1.155c-0.932-0.201-1.965-0.304-3.095-0.306l-5.97-0.015c-0.362,0-0.548,0.184-0.548,0.547
	L155.336,32.35z"/>
<path fill="#FFFFFF" d="M207.595,28.622c-0.004,2.191-0.198,3.998-0.584,5.419c-0.39,1.429-0.973,2.559-1.764,3.395
	c-0.786,0.841-1.782,1.421-2.987,1.748c-1.207,0.324-2.646,0.485-4.327,0.483l-9.746-0.02c-1.683-0.003-3.069-0.307-4.167-0.914
	c-1.094-0.605-1.972-1.391-2.624-2.36c-0.653-0.968-1.108-2.064-1.361-3.291c-0.252-1.221-0.376-2.472-0.373-3.751l0.017-9.639
	c0.003-1.317,0.234-2.5,0.692-3.558c0.455-1.059,1.073-1.963,1.84-2.709c0.771-0.746,1.673-1.319,2.714-1.719
	c1.041-0.398,2.145-0.598,3.315-0.596l11.064,0.024c0.982,0.004,1.98,0.186,2.983,0.555c1,0.367,1.896,0.905,2.677,1.618
	c0.786,0.716,1.421,1.575,1.917,2.581c0.487,1.004,0.729,2.166,0.729,3.478L207.595,28.622z M200.877,20.557
	c0-0.437-0.131-0.83-0.409-1.179c-0.273-0.347-0.628-0.639-1.063-0.876c-0.44-0.239-0.931-0.414-1.478-0.525
	c-0.551-0.113-1.095-0.167-1.646-0.167l-5.969-0.011c-0.477,0-0.952,0.046-1.427,0.135c-0.474,0.088-0.904,0.242-1.288,0.461
	c-0.383,0.22-0.7,0.511-0.96,0.873c-0.258,0.365-0.386,0.802-0.386,1.316l-0.016,8.76c-0.005,0.731,0.147,1.336,0.459,1.811
	c0.312,0.478,0.7,0.85,1.178,1.124c0.471,0.277,0.982,0.461,1.531,0.551c0.544,0.092,1.058,0.141,1.533,0.141l5.035,0.012
	c1.314,0.005,2.456-0.302,3.43-0.922c0.964-0.623,1.451-1.403,1.455-2.354l0.007-4.38L200.877,20.557z"/>
<path fill="#FFFFFF" d="M213.735,0.429l6.516,0.012c0.368,0.003,0.55,0.188,0.55,0.551l-0.057,26.562
	c0,0.367-0.183,0.548-0.548,0.548l-6.518-0.013c-0.366,0-0.548-0.185-0.548-0.551l0.057-26.563
	C213.188,0.608,213.369,0.429,213.735,0.429 M213.119,32.687c0-0.366,0.186-0.549,0.551-0.549l6.519,0.017
	c0.365,0,0.547,0.187,0.547,0.55l-0.016,6.463c0,0.368-0.187,0.549-0.549,0.549l-6.521-0.017c-0.363,0-0.543-0.181-0.543-0.547
	L213.119,32.687z"/>
</svg>
